# xmcd
# 
# Track frame offsets:
#     150
#     26952
#     52050
#     76867
#     98627
#     121300
#     138217
#     161890
#     179150
#     203485
#     224932
#     248985
#     269830
# 
# Disc length: 3941
# 
# Revision: 1
# Processed by: cddbd v1.5.2PL0 Copyright (c) Steve Scherf et al.
# Submitted via: fre:ac v1.0.17
# 
DISCID=cc0f630d
DTITLE=aiko - May Dream
DYEAR=2016
DGENRE=JPop
TTITLE0=何時何分
TTITLE1=あたしの向こう
TTITLE2=冷凍便
TTITLE3=もっと
TTITLE4=信号
TTITLE5=夢見る隙間
TTITLE6=愛だけは
TTITLE7=好き嫌い
TTITLE8=かけらの心
TTITLE9=大切な今
TTITLE10=合図
TTITLE11=プラマイ
TTITLE12=蒼い日
EXTD=
EXTT0=
EXTT1=
EXTT2=
EXTT3=
EXTT4=
EXTT5=
EXTT6=
EXTT7=
EXTT8=
EXTT9=
EXTT10=
EXTT11=
EXTT12=
PLAYORDER=
